<svg xmlns="http://www.w3.org/2000/svg" version="1.1" xmlns:xlink="http://www.w3.org/1999/xlink" xmlns:svgjs="http://svgjs.dev/svgjs" viewBox="0 0 800 800" opacity="0.46"><defs><filter id="bbburst-blur-1" x="-100%" y="-100%" width="400%" height="400%"><feGaussianBlur in="SourceGraphic" stdDeviation="1"></feGaussianBlur></filter><filter id="bbburst-blur-2" x="-100%" y="-100%" width="400%" height="400%"><feGaussianBlur in="SourceGraphic" stdDeviation="2"></feGaussianBlur></filter><filter id="bbburst-blur-3" x="-100%" y="-100%" width="400%" height="400%"><feGaussianBlur in="SourceGraphic" stdDeviation="4"></feGaussianBlur></filter><filter id="bbburst-blur-4" x="-100%" y="-100%" width="400%" height="400%"><feGaussianBlur in="SourceGraphic" stdDeviation="12"></feGaussianBlur></filter><symbol id="bbburst-shape-10" viewBox="0 0 145 145"><circle cx="72.5" cy="72.5" r="61.5" fill="none" stroke-width="22"></circle></symbol><symbol id="bbburst-shape-11" viewBox="0 0 194 167"><path d="M10.398 161 97 11l86.603 150H10.397Z" stroke-width="11"></path></symbol><symbol id="bbburst-shape-13" viewBox="0 0 159 159"><path stroke-width="22" d="M11 11h137v137H11z"></path></symbol></defs><use xlink:href="#bbburst-shape-11" width="18.09511979484137" opacity="0.8701065482698846" transform="matrix(0.9109518738806012,-0.4125126464405925,0.4125126464405925,0.9109518738806012,275.1773047876593,71.73368493175968)" fill="none" stroke="#008367"></use><use xlink:href="#bbburst-shape-10" width="45.32181702250281" opacity="0.20545092928861552" transform="matrix(1.1870479495771318,-0.3916850334193627,0.3916850334193627,1.1870479495771318,-36.547465714012446,-318.6172102484377)" fill="none" stroke="#00a47b" filter="url(#bbburst-blur-3)"></use><use xlink:href="#bbburst-shape-10" width="28.44265228217194" opacity="0.43947005132159356" transform="matrix(0.8148470105130403,0.579676072869979,-0.579676072869979,0.8148470105130403,377.04991835341355,-0.9830580000894429)" fill="none" stroke="#00a47b" filter="url(#bbburst-blur-2)"></use><use xlink:href="#bbburst-shape-10" width="19.35600823829672" opacity="0.7363198243247921" transform="matrix(0.9985991210877372,0.052913092546163935,-0.052913092546163935,0.9985991210877372,384.201881466725,-115.4248312886728)" fill="none" stroke="#008367" filter="url(#bbburst-blur-1)"></use><use xlink:href="#bbburst-shape-10" width="20.524720558156737" opacity="0.7838915841242405" transform="matrix(0.9958929589316687,-0.0905384688976214,0.0905384688976214,0.9958929589316687,413.2637291271156,79.33990294488757)" fill="none" stroke="#00a47b"></use><use xlink:href="#bbburst-shape-13" width="39.0341380614679" opacity="-0.07664284402352983" transform="matrix(1.697748604412275,-0.42444042716990615,0.42444042716990615,1.697748604412275,537.6799542804265,73.75298151708728)" fill="none" stroke="#00a47b" filter="url(#bbburst-blur-4)"></use><use xlink:href="#bbburst-shape-13" width="30.456741099335183" opacity="0.3956931805074567" transform="matrix(0.8155782824800748,-0.578646753336482,0.578646753336482,0.8155782824800748,200.18814460374418,350.9243951786452)" fill="none" stroke="#008367" filter="url(#bbburst-blur-2)"></use><use xlink:href="#bbburst-shape-13" width="47.060641076664105" opacity="0.10058219710446936" transform="matrix(1.4349091812527774,1.0017662609393887,-1.0017662609393887,1.4349091812527774,560.1259828813768,-545.4431654389534)" fill="none" stroke="#008367" filter="url(#bbburst-blur-4)"></use><use xlink:href="#bbburst-shape-11" width="22.230796736131296" opacity="0.6373566519367961" transform="matrix(0.806970286141749,0.5905920396384492,-0.5905920396384492,0.806970286141749,789.9774309613491,55.88443268880087)" fill="none" stroke="#00a47b" filter="url(#bbburst-blur-1)"></use><use xlink:href="#bbburst-shape-10" width="50.302759360930565" opacity="0.20688533812395293" transform="matrix(1.1364775005262624,0.5204986943284097,-0.5204986943284097,1.1364775005262624,240.37360437154797,-178.55923756887455)" fill="none" stroke="#008367" filter="url(#bbburst-blur-3)"></use><use xlink:href="#bbburst-shape-13" width="16.656686396681376" opacity="0.7858476362538955" transform="matrix(0.9846459523886993,0.17456330784145693,-0.17456330784145693,0.9846459523886993,446.3247003100272,99.83402731821405)" fill="none" stroke="#008367"></use><use xlink:href="#bbburst-shape-10" width="36.135930318128715" opacity="0.18969582851715905" transform="matrix(1.2286245240521383,-0.23017771155708527,0.23017771155708527,1.2286245240521383,-78.78078057663004,-96.87242432843527)" fill="none" stroke="#008367" filter="url(#bbburst-blur-3)"></use><use xlink:href="#bbburst-shape-11" width="22.324270415853768" opacity="0.7582050798495225" transform="matrix(0.9230504371736423,0.3846789446194681,-0.3846789446194681,0.9230504371736423,624.5208282089402,-46.60621683421647)" fill="none" stroke="#00a47b" filter="url(#bbburst-blur-1)"></use><use xlink:href="#bbburst-shape-10" width="36.776050836969574" opacity="0.3668622475093867" transform="matrix(0.7388571989528974,0.6738620330271462,-0.6738620330271462,0.7388571989528974,418.7433103780859,-65.74299714435799)" fill="none" stroke="#008367" filter="url(#bbburst-blur-2)"></use><use xlink:href="#bbburst-shape-10" width="22.92522221954019" opacity="0.7137655472435734" transform="matrix(0.8159262565557676,-0.5781559857537512,0.5781559857537512,0.8159262565557676,41.80037219061205,132.83727547295172)" fill="none" stroke="#63f2c5" filter="url(#bbburst-blur-1)"></use><use xlink:href="#bbburst-shape-10" width="22.365684468257406" opacity="0.6981371564009035" transform="matrix(0.9920493591551185,0.12584939014519997,-0.12584939014519997,0.9920493591551185,303.8806245496064,-9.554179069951488)" fill="none" stroke="#00c896" filter="url(#bbburst-blur-1)"></use><use xlink:href="#bbburst-shape-13" width="45.59514245741519" opacity="0.3502821264342424" transform="matrix(0.9968175763884038,0.07971649392157534,-0.07971649392157534,0.9968175763884038,160.44625696379123,153.1523283915048)" fill="none" stroke="#63f2c5" filter="url(#bbburst-blur-2)"></use><use xlink:href="#bbburst-shape-11" width="29.222478907825778" opacity="0.5257191488013333" transform="matrix(0.928151083320657,0.37220366270456134,-0.37220366270456134,0.928151083320657,387.28501219765025,-130.6547660248783)" fill="none" stroke="#00c896" filter="url(#bbburst-blur-2)"></use><use xlink:href="#bbburst-shape-11" width="47.73466558551162" opacity="0.20199652820575031" transform="matrix(1.0673941078137066,0.6505150410287077,-0.6505150410287077,1.0673941078137066,289.9553110116295,55.89581109510988)" fill="none" stroke="#00a47b" filter="url(#bbburst-blur-3)"></use><use xlink:href="#bbburst-shape-10" width="46.68545561773236" opacity="0.1883041312845226" transform="matrix(1.225426222662588,-0.24663854688775083,0.24663854688775083,1.225426222662588,524.2625882284749,180.45166296792922)" fill="none" stroke="#00c896" filter="url(#bbburst-blur-3)"></use><use xlink:href="#bbburst-shape-10" width="29.224349150713973" opacity="0.64103547667791" transform="matrix(0.9399905346377057,0.3412005199168377,-0.3412005199168377,0.9399905346377057,602.4485616738897,-121.48304350688852)" fill="none" stroke="#00a47b" filter="url(#bbburst-blur-1)"></use><use xlink:href="#bbburst-shape-10" width="41.64274805497668" opacity="0.06201176549810894" transform="matrix(1.254046586213787,-1.2206011468147762,1.2206011468147762,1.254046586213787,-343.1735001649861,278.48507554685017)" fill="none" stroke="#63f2c5" filter="url(#bbburst-blur-4)"></use><use xlink:href="#bbburst-shape-10" width="37.989628350254925" opacity="0.17035278640370832" transform="matrix(1.2488292648563233,-0.05408758858014595,0.05408758858014595,1.2488292648563233,629.2697031098006,-351.41585940402405)" fill="none" stroke="#00a47b" filter="url(#bbburst-blur-3)"></use><use xlink:href="#bbburst-shape-11" width="42.06291893822338" opacity="0.2838863001024742" transform="matrix(1.1697799058230918,-0.4405848067427186,0.4405848067427186,1.1697799058230918,353.2394725884569,-342.18073275379237)" fill="none" stroke="#00c896" filter="url(#bbburst-blur-3)"></use><use xlink:href="#bbburst-shape-10" width="25.35836351899507" opacity="0.575995577927948" transform="matrix(0.9677603862280786,-0.25187265601426484,0.25187265601426484,0.9677603862280786,425.49075709928627,147.31557087152885)" fill="none" stroke="#00c896" filter="url(#bbburst-blur-1)"></use><use xlink:href="#bbburst-shape-10" width="35.12496517263997" opacity="0.08684367845460794" transform="matrix(1.2831117471777007,1.1900101866179917,-1.1900101866179917,1.2831117471777007,499.50257465978325,74.57325735246184)" fill="none" stroke="#00a47b" filter="url(#bbburst-blur-4)"></use><use xlink:href="#bbburst-shape-10" width="32.72605349241289" opacity="0.3939942560897407" transform="matrix(0.9686334026483824,-0.24849412724210773,0.24849412724210773,0.9686334026483824,115.51865389335381,230.45052067953918)" fill="none" stroke="#00c896" filter="url(#bbburst-blur-2)"></use><use xlink:href="#bbburst-shape-13" width="13.746469854027225" opacity="0.8454674706559413" transform="matrix(0.9917721559862559,0.1280155873726856,-0.1280155873726856,0.9917721559862559,461.6650666168575,69.77086658752171)" fill="none" stroke="#00a47b"></use><use xlink:href="#bbburst-shape-10" width="32.07863227096864" opacity="0.23858535946314519" transform="matrix(1.0318060066187231,-0.7056035464094012,0.7056035464094012,1.0318060066187231,87.6062912730797,340.96144636742144)" fill="none" stroke="#008367" filter="url(#bbburst-blur-3)"></use><use xlink:href="#bbburst-shape-11" width="29.12647290743444" opacity="0.17414189000348002" transform="matrix(0.8982727300859438,0.8692560626098302,-0.8692560626098302,0.8982727300859438,1102.7668186347814,-25.427452256700917)" fill="none" stroke="#008367" filter="url(#bbburst-blur-3)"></use><use xlink:href="#bbburst-shape-10" width="30.515839977024246" opacity="0.18142529722986056" transform="matrix(1.2489180747484538,0.05199656302694808,-0.05199656302694808,1.2489180747484538,479.8077053637815,-460.3521631937071)" fill="none" stroke="#008367" filter="url(#bbburst-blur-3)"></use><use xlink:href="#bbburst-shape-10" width="15.406779228281323" opacity="0.9502186498026374" transform="matrix(0.8647940026911236,0.5021268095904309,-0.5021268095904309,0.8647940026911236,596.8607411957491,27.972617307399673)" fill="none" stroke="#00a47b"></use><use xlink:href="#bbburst-shape-13" width="33.87856718582227" opacity="0.39058406636975807" transform="matrix(0.9986967348351383,-0.051037553131330834,0.051037553131330834,0.9986967348351383,212.8430000616381,-228.30648729038663)" fill="none" stroke="#00a47b" filter="url(#bbburst-blur-2)"></use><use xlink:href="#bbburst-shape-10" width="16.233341771375787" opacity="0.8805147230166032" transform="matrix(0.9290868553838433,-0.36986161622012276,0.36986161622012276,0.9290868553838433,223.1455377156553,80.70708516057283)" fill="none" stroke="#63f2c5"></use><use xlink:href="#bbburst-shape-13" width="16.067723742488294" opacity="0.8399003056970945" transform="matrix(0.984302308821573,0.1764906933765085,-0.1764906933765085,0.984302308821573,534.4223160836995,-1.82669642046244)" fill="none" stroke="#008367"></use><use xlink:href="#bbburst-shape-10" width="21.541376674745166" opacity="0.7957111956900496" transform="matrix(0.9514189059035346,-0.30789944054726887,0.30789944054726887,0.9514189059035346,209.44814917594502,-49.26244675658825)" fill="none" stroke="#008367"></use><use xlink:href="#bbburst-shape-11" width="33.3571795913668" opacity="0.3240830658195256" transform="matrix(1.1989619145067045,0.3535397114362374,-0.3535397114362374,1.1989619145067045,421.27140974077736,-373.14634454957474)" fill="none" stroke="#63f2c5" filter="url(#bbburst-blur-3)"></use><use xlink:href="#bbburst-shape-10" width="12.443192911342205" opacity="0.9461490676117622" transform="matrix(0.777928110287776,-0.6283532885440243,0.6283532885440243,0.777928110287776,151.24474807161198,115.80516456976801)" fill="none" stroke="#63f2c5"></use><use xlink:href="#bbburst-shape-10" width="52.1773628479433" opacity="-0.07190881358563472" transform="matrix(1.7014658221595944,-0.40928481039830406,0.40928481039830406,1.7014658221595944,537.2124706571522,-606.6985116329645)" fill="none" stroke="#63f2c5" filter="url(#bbburst-blur-4)"></use><use xlink:href="#bbburst-shape-11" width="28.162406114265178" opacity="0.07185487857447315" transform="matrix(1.366824009609708,1.0928367338053935,-1.0928367338053935,1.366824009609708,1033.4029958591248,195.3921215244809)" fill="none" stroke="#63f2c5" filter="url(#bbburst-blur-4)"></use><use xlink:href="#bbburst-shape-13" width="18.780616253005768" opacity="0.6751499449437617" transform="matrix(0.9434876379206405,-0.33140772032487453,0.33140772032487453,0.9434876379206405,341.12531538231735,146.36169881389708)" fill="none" stroke="#008367" filter="url(#bbburst-blur-1)"></use><use xlink:href="#bbburst-shape-10" width="34.82008435011648" opacity="0.1857249538747182" transform="matrix(1.2497498717067939,-0.025005162843938746,0.025005162843938746,1.2497498717067939,104.10854844044795,154.506059129003)" fill="none" stroke="#00c896" filter="url(#bbburst-blur-3)"></use><use xlink:href="#bbburst-shape-10" width="28.436467987218407" opacity="0.3141031831629755" transform="matrix(1.226931069422733,-0.23904006125582591,0.23904006125582591,1.226931069422733,595.4824893093659,-95.62232567679064)" fill="none" stroke="#008367" filter="url(#bbburst-blur-3)"></use><use xlink:href="#bbburst-shape-13" width="34.32429297881366" opacity="0.5809377334259419" transform="matrix(0.8832118135763053,-0.46897429818621594,0.46897429818621594,0.8832118135763053,26.711064508813735,-25.717789244046173)" fill="none" stroke="#00a47b" filter="url(#bbburst-blur-1)"></use><use xlink:href="#bbburst-shape-10" width="14.072119625209417" opacity="0.8923137894799267" transform="matrix(0.845930275767502,0.5332935106861119,-0.5332935106861119,0.845930275767502,574.6817710747629,22.098027085817876)" fill="none" stroke="#00a47b"></use><use xlink:href="#bbburst-shape-11" width="26.88522300563411" opacity="0.766334320718163" transform="matrix(0.9921706155292784,-0.12488983017144621,0.12488983017144621,0.9921706155292784,367.5420590647519,-96.04653916382284)" fill="none" stroke="#63f2c5" filter="url(#bbburst-blur-1)"></use><use xlink:href="#bbburst-shape-13" width="18.457069195993302" opacity="0.6964577006291534" transform="matrix(0.9999444975785362,0.010535737392739754,-0.010535737392739754,0.9999444975785362,423.4881560675877,133.5122915058925)" fill="none" stroke="#63f2c5" filter="url(#bbburst-blur-1)"></use><use xlink:href="#bbburst-shape-11" width="21.019102668649467" opacity="0.746548018338721" transform="matrix(0.9499239481540269,0.31248118779130607,-0.31248118779130607,0.9499239481540269,626.6143719091456,-7.413818400846367)" fill="none" stroke="#008367" filter="url(#bbburst-blur-1)"></use><use xlink:href="#bbburst-shape-13" width="18.05053552965518" opacity="0.8629468376013456" transform="matrix(0.9474004992720484,-0.32005045536457766,0.32005045536457766,0.9474004992720484,304.60441581166333,-21.987695217499947)" fill="none" stroke="#00c896"></use><use xlink:href="#bbburst-shape-10" width="17.829863457159533" opacity="0.8094807206119676" transform="matrix(0.9791072007979484,0.20334475490065096,-0.20334475490065096,0.9791072007979484,391.68174414477835,-21.757780619611253)" fill="none" stroke="#008367"></use><use xlink:href="#bbburst-shape-10" width="33.717134588186475" opacity="0.09706125480093775" transform="matrix(1.450541765505549,0.9789936601041117,-0.9789936601041117,1.450541765505549,1125.3141603727495,-388.58474733252706)" fill="none" stroke="#00c896" filter="url(#bbburst-blur-4)"></use><use xlink:href="#bbburst-shape-13" width="37.54175401266478" opacity="0.17569579402750513" transform="matrix(1.2402400877915758,-0.15589908477840556,0.15589908477840556,1.2402400877915758,398.1213276838655,268.18640043572066)" fill="none" stroke="#00a47b" filter="url(#bbburst-blur-3)"></use><use xlink:href="#bbburst-shape-10" width="35.10266475597783" opacity="0.360389662877446" transform="matrix(0.8745070693835365,-0.4850127684898805,0.4850127684898805,0.8745070693835365,-97.17602048703418,59.91363231645124)" fill="none" stroke="#008367" filter="url(#bbburst-blur-2)"></use><use xlink:href="#bbburst-shape-13" width="40.124854642136924" opacity="0.26835858180385497" transform="matrix(0.8910884186333956,-0.8766193188479445,0.8766193188479445,0.8910884186333956,-121.15228252249779,352.87601420370515)" fill="none" stroke="#63f2c5" filter="url(#bbburst-blur-3)"></use><use xlink:href="#bbburst-shape-11" width="17.39807226999745" opacity="0.7572605981690537" transform="matrix(0.740294561261647,0.6722826507998146,-0.6722826507998146,0.740294561261647,763.3115689325667,140.22112982233784)" fill="none" stroke="#63f2c5" filter="url(#bbburst-blur-1)"></use><use xlink:href="#bbburst-shape-11" width="31.11547850662569" opacity="0.5892680651954083" transform="matrix(0.9996512063627344,-0.026409574353439543,0.026409574353439543,0.9996512063627344,307.12023222586,-172.2045378636822)" fill="none" stroke="#00c896" filter="url(#bbburst-blur-1)"></use><use xlink:href="#bbburst-shape-11" width="35.42861716020798" opacity="0.06644022180160769" transform="matrix(1.3664404128057548,-1.093316330368864,1.093316330368864,1.3664404128057548,291.5563069441676,99.01854200080322)" fill="none" stroke="#00a47b" filter="url(#bbburst-blur-4)"></use><use xlink:href="#bbburst-shape-10" width="29.566131916823778" opacity="0.5493048747053146" transform="matrix(0.9854963073925447,-0.16969687126066627,0.16969687126066627,0.9854963073925447,232.29124196364447,192.33058489338936)" fill="none" stroke="#008367" filter="url(#bbburst-blur-2)"></use><use xlink:href="#bbburst-shape-13" width="32.45845139631249" opacity="0.07252183447434124" transform="matrix(1.6237544783261668,-0.6526265349460727,0.6526265349460727,1.6237544783261668,331.77136330013377,-594.0950570169769)" fill="none" stroke="#00a47b" filter="url(#bbburst-blur-4)"></use><use xlink:href="#bbburst-shape-11" width="53.14742129738302" opacity="-0.06763942524178934" transform="matrix(1.6560790003410988,-0.5655991023942898,0.5655991023942898,1.6560790003410988,-208.78181851102468,-589.8234254010392)" fill="none" stroke="#008367" filter="url(#bbburst-blur-4)"></use><use xlink:href="#bbburst-shape-11" width="12.40467240404044" opacity="0.9450742162183413" transform="matrix(0.9883093203236211,-0.15246208499644182,0.15246208499644182,0.9883093203236211,309.42274617837796,13.309984573459246)" fill="none" stroke="#00c896"></use><use xlink:href="#bbburst-shape-10" width="36.73395908352891" opacity="0.4862754244691717" transform="matrix(0.7201911454317256,0.6937756943290383,-0.6937756943290383,0.7201911454317256,871.5466019802892,201.57223662420353)" fill="none" stroke="#008367" filter="url(#bbburst-blur-2)"></use><use xlink:href="#bbburst-shape-13" width="30.74082922234784" opacity="0.3615191276282551" transform="matrix(0.9883305092774918,0.15232466783582282,-0.15232466783582282,0.9883305092774918,724.8463453398165,70.51525249827785)" fill="none" stroke="#008367" filter="url(#bbburst-blur-2)"></use><use xlink:href="#bbburst-shape-10" width="33.796912287260575" opacity="0.414489584476164" transform="matrix(0.8944522038693455,-0.44716356626325304,0.44716356626325304,0.8944522038693455,145.00529585848372,306.0932333526484)" fill="none" stroke="#63f2c5" filter="url(#bbburst-blur-2)"></use><use xlink:href="#bbburst-shape-10" width="36.010972335793156" opacity="0.4970597778355732" transform="matrix(0.855007277816009,-0.5186159994462741,0.5186159994462741,0.855007277816009,403.4797668047304,66.36030655355046)" fill="none" stroke="#00a47b" filter="url(#bbburst-blur-2)"></use><use xlink:href="#bbburst-shape-10" width="25.453685473357876" opacity="0.5080730610215307" transform="matrix(0.7591269860315374,0.6509425620426691,-0.6509425620426691,0.7591269860315374,789.9621671520486,-84.02194339662097)" fill="none" stroke="#00c896" filter="url(#bbburst-blur-2)"></use><use xlink:href="#bbburst-shape-10" width="36.99352324296315" opacity="0.28560906294106914" transform="matrix(1.1883789109406693,-0.3876281259551081,0.3876281259551081,1.1883789109406693,364.04733355404045,220.6837971397049)" fill="none" stroke="#63f2c5" filter="url(#bbburst-blur-3)"></use><use xlink:href="#bbburst-shape-10" width="51.81870839474286" opacity="-0.07509396245471311" transform="matrix(1.5817537866516889,-0.7487021827222383,0.7487021827222383,1.5817537866516889,-286.2682875267693,125.03654901314849)" fill="none" stroke="#00a47b" filter="url(#bbburst-blur-4)"></use><use xlink:href="#bbburst-shape-13" width="23.69578917168758" opacity="0.7172005411130218" transform="matrix(0.940317973155082,0.3402970898516743,-0.3402970898516743,0.940317973155082,413.19337228021254,-40.980317796040424)" fill="none" stroke="#008367" filter="url(#bbburst-blur-1)"></use><use xlink:href="#bbburst-shape-10" width="32.28214923506066" opacity="0.5731255332908602" transform="matrix(0.7900330668466458,0.6130642325962944,-0.6130642325962944,0.7900330668466458,440.4304096934111,78.48219269208556)" fill="none" stroke="#00a47b" filter="url(#bbburst-blur-1)"></use><use xlink:href="#bbburst-shape-10" width="28.417341364692277" opacity="0.16459294449344875" transform="matrix(1.1225045893109868,0.549984951590289,-0.549984951590289,1.1225045893109868,500.19628503851675,304.4885577495961)" fill="none" stroke="#63f2c5" filter="url(#bbburst-blur-3)"></use><use xlink:href="#bbburst-shape-10" width="35.83052428968273" opacity="0.28955027340745954" transform="matrix(1.1870260804369868,-0.3917513042255307,0.3917513042255307,1.1870260804369868,496.92248874553417,95.44303947180151)" fill="none" stroke="#00a47b" filter="url(#bbburst-blur-3)"></use><use xlink:href="#bbburst-shape-13" width="32.85451276656393" opacity="0.3163167524564534" transform="matrix(0.9683031405540623,0.7904992270667566,-0.7904992270667566,0.9683031405540623,705.988964768901,-307.9117162387003)" fill="none" stroke="#63f2c5" filter="url(#bbburst-blur-3)"></use><use xlink:href="#bbburst-shape-11" width="22.547442425055355" opacity="0.5835633653838308" transform="matrix(0.9991976185081092,0.04005145649939618,-0.04005145649939618,0.9991976185081092,235.44575566690293,79.87584579753502)" fill="none" stroke="#008367" filter="url(#bbburst-blur-1)"></use><use xlink:href="#bbburst-shape-10" width="15.043200442032367" opacity="0.8537002735590697" transform="matrix(0.8288546078282282,-0.5594640641559688,0.5594640641559688,0.8288546078282282,166.3030559523871,6.9341087241379)" fill="none" stroke="#00a47b"></use><use xlink:href="#bbburst-shape-10" width="27.120618793147024" opacity="0.5353926239478198" transform="matrix(0.8244560023436807,-0.5659260554166745,0.5659260554166745,0.8244560023436807,9.320703605551586,220.24045689673733)" fill="none" stroke="#00a47b" filter="url(#bbburst-blur-2)"></use><use xlink:href="#bbburst-shape-10" width="38.720516920916396" opacity="0.4489307165944252" transform="matrix(0.9275701492296368,-0.37364905761704964,0.37364905761704964,0.9275701492296368,308.3515456907267,-199.9163314013106)" fill="none" stroke="#00c896" filter="url(#bbburst-blur-2)"></use><use xlink:href="#bbburst-shape-10" width="27.422398626492047" opacity="0.6354544884250293" transform="matrix(0.9680184030782115,0.25087919663038855,-0.25087919663038855,0.9680184030782115,641.0947908691704,65.83332277310217)" fill="none" stroke="#008367" filter="url(#bbburst-blur-1)"></use><use xlink:href="#bbburst-shape-10" width="31.762593042252377" opacity="0.5605690710000679" transform="matrix(0.9909510819694481,-0.1342235193383782,0.1342235193383782,0.9909510819694481,336.02190645075996,203.42004171808725)" fill="none" stroke="#008367" filter="url(#bbburst-blur-1)"></use><use xlink:href="#bbburst-shape-10" width="21.043637101929257" opacity="0.6337178659397221" transform="matrix(0.9010129584730469,0.43379217220190547,-0.43379217220190547,0.9010129584730469,702.3233933981652,-54.66163707850558)" fill="none" stroke="#00c896" filter="url(#bbburst-blur-1)"></use><use xlink:href="#bbburst-shape-13" width="25.45789665450218" opacity="0.6693941313257198" transform="matrix(0.9271549497979913,-0.3746781272840521,0.3746781272840521,0.9271549497979913,140.85359325031715,-78.48589592937293)" fill="none" stroke="#00a47b" filter="url(#bbburst-blur-1)"></use><use xlink:href="#bbburst-shape-13" width="39.97301961481487" opacity="0.40240489791015943" transform="matrix(0.9959173823845967,0.09026941599574555,-0.09026941599574555,0.9959173823845967,596.2959270637855,199.53683711018726)" fill="none" stroke="#63f2c5" filter="url(#bbburst-blur-2)"></use><use xlink:href="#bbburst-shape-13" width="28.295890728889834" opacity="0.36923276446243536" transform="matrix(0.9997932680000697,0.020332763258856017,-0.020332763258856017,0.9997932680000697,606.8793164715529,-187.94269280653583)" fill="none" stroke="#63f2c5" filter="url(#bbburst-blur-2)"></use><use xlink:href="#bbburst-shape-10" width="37.927707893819516" opacity="0.49448700276082347" transform="matrix(0.86169226101397,0.5074312242152943,-0.5074312242152943,0.86169226101397,796.0332208041903,-43.172980141235485)" fill="none" stroke="#00a47b" filter="url(#bbburst-blur-2)"></use><use xlink:href="#bbburst-shape-13" width="36.11562284830627" opacity="0.43837917349864064" transform="matrix(0.9420032307258716,-0.3356038040636913,0.3356038040636913,0.9420032307258716,5.4366053141098405,97.60891608877506)" fill="none" stroke="#00a47b" filter="url(#bbburst-blur-2)"></use><use xlink:href="#bbburst-shape-10" width="31.723642463832917" opacity="0.16804920447330973" transform="matrix(1.0612287415192347,-0.6605252138817269,0.6605252138817269,1.0612287415192347,480.32184049270546,83.8333212897819)" fill="none" stroke="#008367" filter="url(#bbburst-blur-3)"></use><use xlink:href="#bbburst-shape-11" width="22.489811519859877" opacity="0.7849954416981222" transform="matrix(0.825065218580549,-0.565037507683013,0.565037507683013,0.825065218580549,104.36008424965132,151.84424794368852)" fill="none" stroke="#008367"></use><use xlink:href="#bbburst-shape-10" width="33.251358578764865" opacity="0.17062234340195848" transform="matrix(1.1903807586434059,0.38143629802569845,-0.38143629802569845,1.1903807586434059,455.61057433835157,-447.64795876089664)" fill="none" stroke="#008367" filter="url(#bbburst-blur-3)"></use><use xlink:href="#bbburst-shape-11" width="27.616865973005442" opacity="0.6745298775390622" transform="matrix(0.8791859426718701,-0.47647883290674625,0.47647883290674625,0.8791859426718701,162.43736690261218,196.89317542195516)" fill="none" stroke="#00c896" filter="url(#bbburst-blur-1)"></use><use xlink:href="#bbburst-shape-11" width="37.41218791834754" opacity="0.3055708603484032" transform="matrix(1.2316182811854521,-0.21357998372926368,0.21357998372926368,1.2316182811854521,581.1920576956218,-206.2404136250609)" fill="none" stroke="#008367" filter="url(#bbburst-blur-3)"></use><use xlink:href="#bbburst-shape-11" width="37.106549642797624" opacity="0.49084894840169446" transform="matrix(0.9558776204360752,-0.2937651693946486,0.2937651693946486,0.9558776204360752,241.8734505805785,-205.34400092865968)" fill="none" stroke="#00a47b" filter="url(#bbburst-blur-2)"></use><use xlink:href="#bbburst-shape-10" width="33.538315339233925" opacity="0.5129984372542888" transform="matrix(0.7736581610586739,0.6336032274438878,-0.6336032274438878,0.7736581610586739,731.8144276295891,279.11718566803876)" fill="none" stroke="#008367" filter="url(#bbburst-blur-2)"></use><use xlink:href="#bbburst-shape-11" width="18.86450705711136" opacity="0.7938640400542082" transform="matrix(0.991494007721354,0.13015234401518722,-0.13015234401518722,0.991494007721354,351.1836881162625,16.832599787841104)" fill="none" stroke="#63f2c5"></use><use xlink:href="#bbburst-shape-10" width="14.93806479254147" opacity="0.927569818704152" transform="matrix(0.871585664524398,-0.490243234930951,0.490243234930951,0.871585664524398,229.70120970248914,50.72534989993005)" fill="none" stroke="#008367"></use><use xlink:href="#bbburst-shape-10" width="15.667598586587534" opacity="0.849405510409647" transform="matrix(0.8823870960880844,0.4705241892371078,-0.4705241892371078,0.8823870960880844,523.2703987230873,78.36378957196138)" fill="none" stroke="#00c896"></use><use xlink:href="#bbburst-shape-10" width="45.9455162467951" opacity="0.08159044068546017" transform="matrix(1.4057397821413264,1.042303058090715,-1.042303058090715,1.4057397821413264,432.8365347725595,-403.1437348991982)" fill="none" stroke="#00c896" filter="url(#bbburst-blur-4)"></use><use xlink:href="#bbburst-shape-13" width="12.336395280308638" opacity="0.8814247964177765" transform="matrix(0.9105366288405772,-0.413428406788451,0.413428406788451,0.9105366288405772,175.89188378101517,33.29650079664225)" fill="none" stroke="#00a47b"></use><use xlink:href="#bbburst-shape-10" width="26.643182897542598" opacity="0.6768767643305653" transform="matrix(0.9705190881167974,-0.24102427180875352,0.24102427180875352,0.9705190881167974,197.9584115156311,127.02505848882197)" fill="none" stroke="#63f2c5" filter="url(#bbburst-blur-1)"></use><use xlink:href="#bbburst-shape-10" width="22.80099820983381" opacity="0.6273519407009243" transform="matrix(0.7777775149937503,0.6285396862332137,-0.6285396862332137,0.7777775149937503,662.2792233697559,-84.80352655376635)" fill="none" stroke="#008367" filter="url(#bbburst-blur-1)"></use></svg>