<svg xmlns="http://www.w3.org/2000/svg" version="1.1" xmlns:xlink="http://www.w3.org/1999/xlink" xmlns:svgjs="http://svgjs.dev/svgjs" viewBox="0 0 2400 800"><defs><linearGradient x1="50%" y1="0%" x2="50%" y2="100%" id="oooscillate-grad"><stop stop-color="#00c896" stop-opacity="0.5" offset="0%"></stop><stop stop-color="#006752" stop-opacity="0.5" offset="100%"></stop></linearGradient></defs><g stroke-width="2.5" stroke="url(#oooscillate-grad)" fill="none" stroke-linecap="round"><path d="M 0 792 Q 600 -100 1200 400 Q 1800 900 2400 792" stroke-dasharray="132 72" opacity="1.00"></path><path d="M 0 770 Q 600 -100 1200 400 Q 1800 900 2400 770" stroke-dasharray="12 79" opacity="0.97"></path><path d="M 0 748 Q 600 -100 1200 400 Q 1800 900 2400 748" stroke-dasharray="5 92" opacity="0.95"></path><path d="M 0 726 Q 600 -100 1200 400 Q 1800 900 2400 726" stroke-dasharray="132 27" opacity="0.92"></path><path d="M 0 704 Q 600 -100 1200 400 Q 1800 900 2400 704" stroke-dasharray="45 130" opacity="0.89"></path><path d="M 0 682 Q 600 -100 1200 400 Q 1800 900 2400 682" stroke-dasharray="11 133" opacity="0.86"></path><path d="M 0 660 Q 600 -100 1200 400 Q 1800 900 2400 660" stroke-dasharray="89 93" opacity="0.84"></path><path d="M 0 638 Q 600 -100 1200 400 Q 1800 900 2400 638" stroke-dasharray="146 86" opacity="0.81"></path><path d="M 0 616 Q 600 -100 1200 400 Q 1800 900 2400 616" stroke-dasharray="5 127" opacity="0.78"></path><path d="M 0 594 Q 600 -100 1200 400 Q 1800 900 2400 594" stroke-dasharray="140 112" opacity="0.76"></path><path d="M 0 572 Q 600 -100 1200 400 Q 1800 900 2400 572" stroke-dasharray="98 78" opacity="0.73"></path><path d="M 0 550 Q 600 -100 1200 400 Q 1800 900 2400 550" stroke-dasharray="94 56" opacity="0.70"></path><path d="M 0 528 Q 600 -100 1200 400 Q 1800 900 2400 528" stroke-dasharray="22 111" opacity="0.67"></path><path d="M 0 506 Q 600 -100 1200 400 Q 1800 900 2400 506" stroke-dasharray="35 48" opacity="0.65"></path><path d="M 0 484 Q 600 -100 1200 400 Q 1800 900 2400 484" stroke-dasharray="115 26" opacity="0.62"></path><path d="M 0 462 Q 600 -100 1200 400 Q 1800 900 2400 462" stroke-dasharray="106 66" opacity="0.59"></path><path d="M 0 440 Q 600 -100 1200 400 Q 1800 900 2400 440" stroke-dasharray="144 96" opacity="0.57"></path><path d="M 0 418 Q 600 -100 1200 400 Q 1800 900 2400 418" stroke-dasharray="74 18" opacity="0.54"></path><path d="M 0 396 Q 600 -100 1200 400 Q 1800 900 2400 396" stroke-dasharray="118 30" opacity="0.51"></path><path d="M 0 374 Q 600 -100 1200 400 Q 1800 900 2400 374" stroke-dasharray="21 122" opacity="0.48"></path><path d="M 0 352 Q 600 -100 1200 400 Q 1800 900 2400 352" stroke-dasharray="148 54" opacity="0.46"></path><path d="M 0 330 Q 600 -100 1200 400 Q 1800 900 2400 330" stroke-dasharray="26 147" opacity="0.43"></path><path d="M 0 308 Q 600 -100 1200 400 Q 1800 900 2400 308" stroke-dasharray="88 135" opacity="0.40"></path><path d="M 0 286 Q 600 -100 1200 400 Q 1800 900 2400 286" stroke-dasharray="117 101" opacity="0.38"></path><path d="M 0 264 Q 600 -100 1200 400 Q 1800 900 2400 264" stroke-dasharray="125 134" opacity="0.35"></path><path d="M 0 242 Q 600 -100 1200 400 Q 1800 900 2400 242" stroke-dasharray="73 93" opacity="0.32"></path><path d="M 0 220 Q 600 -100 1200 400 Q 1800 900 2400 220" stroke-dasharray="134 51" opacity="0.29"></path><path d="M 0 198 Q 600 -100 1200 400 Q 1800 900 2400 198" stroke-dasharray="57 39" opacity="0.27"></path><path d="M 0 176 Q 600 -100 1200 400 Q 1800 900 2400 176" stroke-dasharray="28 143" opacity="0.24"></path><path d="M 0 154 Q 600 -100 1200 400 Q 1800 900 2400 154" stroke-dasharray="74 146" opacity="0.21"></path><path d="M 0 132 Q 600 -100 1200 400 Q 1800 900 2400 132" stroke-dasharray="31 53" opacity="0.19"></path><path d="M 0 110 Q 600 -100 1200 400 Q 1800 900 2400 110" stroke-dasharray="113 142" opacity="0.16"></path><path d="M 0 88 Q 600 -100 1200 400 Q 1800 900 2400 88" stroke-dasharray="107 36" opacity="0.13"></path><path d="M 0 66 Q 600 -100 1200 400 Q 1800 900 2400 66" stroke-dasharray="49 9" opacity="0.10"></path><path d="M 0 44 Q 600 -100 1200 400 Q 1800 900 2400 44" stroke-dasharray="39 86" opacity="0.08"></path></g></svg>