<svg width="444" height="384" viewBox="0 0 444 384" fill="none" xmlns="http://www.w3.org/2000/svg">
<path d="M210.123 20.5714L218.041 6.85714L219.773 7.85714L222 4L224.227 7.857L225.959 6.857L233.877 20.5713L232.145 21.5713L240.063 35.2856L241.795 34.2856L249.713 47.9999L247.981 48.9999L255.899 62.7142L257.631 61.7142L265.549 75.4285L263.817 76.4285L271.735 90.1428L273.467 89.1428L281.385 102.857L279.653 103.857L287.57 117.571L289.303 116.571L297.22 130.286L295.488 131.286L303.406 145L305.138 144L313.056 157.714L311.324 158.714L319.242 172.429L320.974 171.429L328.892 185.143L327.16 186.143L335.078 199.857L336.81 198.857L344.728 212.571L342.996 213.571L350.914 227.286L352.646 226.286L360.564 240L358.832 241L366.75 254.714L368.482 253.714L376.4 267.429L374.668 268.429L382.586 282.143L384.318 281.143L392.236 294.857L390.504 295.857L398.422 309.571L400.154 308.571L408.072 322.286L406.34 323.286L414.258 337L415.99 336L423.908 349.714L422.176 350.714L430.094 364.429L431.826 363.429L439.744 377.143L438.012 378.143L440.238 382H435.785V384H419.949V382H404.113V384H388.277V382H372.441V384H356.605V382H340.769V384H324.933V382H309.097V384H293.262V382H277.426V384H261.59V382H245.754V384H229.918V382H214.082V384H198.246V382H182.41V384H166.574V382H150.738V384H134.903V382H119.067V384H103.231V382H87.3949V384H71.559V382H55.7231V384H39.8872V382H24.0513V384H8.21545V382H3.7616L5.98845 378.143L4.25639 377.143L12.1743 363.429L13.9064 364.429L21.8244 350.714L20.0923 349.714L28.0103 336L29.7423 337L37.6603 323.286L35.9282 322.286L43.8462 308.572L45.5782 309.572L53.4962 295.857L51.7641 294.857L59.6821 281.143L61.4141 282.143L69.3321 268.429L67.6 267.429L75.518 253.714L77.25 254.714L85.168 241L83.4359 240L91.3539 226.286L93.0859 227.286L101.004 213.571L99.2718 212.571L107.19 198.857L108.922 199.857L116.84 186.143L115.108 185.143L123.026 171.429L124.758 172.429L132.676 158.714L130.944 157.714L138.862 144L140.594 145L148.512 131.286L146.78 130.286L154.697 116.571L156.43 117.571L164.347 103.857L162.615 102.857L170.533 89.1429L172.265 90.1429L180.183 76.4286L178.451 75.4286L186.369 61.7143L188.101 62.7143L196.019 49L194.287 48L202.205 34.2857L203.937 35.2857L211.855 21.5714L210.123 20.5714Z" stroke="white" stroke-width="4" stroke-miterlimit="3.8637" stroke-dasharray="16 16"/>
</svg>
