<svg width="512" height="512" viewBox="0 0 512 512" fill="none" xmlns="http://www.w3.org/2000/svg">
<path d="M379.32 132.68C380.808 134.166 381.988 135.931 382.793 137.873C383.598 139.815 384.013 141.897 384.013 144C384.013 146.103 383.598 148.185 382.793 150.127C381.988 152.069 380.808 153.834 379.32 155.32L347.32 187.32C344.318 190.322 340.246 192.009 336 192.009C331.754 192.009 327.682 190.322 324.68 187.32C321.678 184.318 319.991 180.246 319.991 176C319.991 171.754 321.678 167.682 324.68 164.68L356.68 132.68C358.166 131.192 359.931 130.012 361.873 129.207C363.815 128.402 365.897 127.987 368 127.987C370.103 127.987 372.185 128.402 374.127 129.207C376.069 130.012 377.834 131.192 379.32 132.68ZM448 144C448.03 154.51 445.973 164.921 441.949 174.63C437.926 184.338 432.015 193.152 424.56 200.56L376.56 248.56C374.223 250.9 371.219 252.458 367.96 253.02C264.98 270.7 93.04 441.58 91.32 443.32C88.3178 446.32 84.2469 448.004 80.0029 448.002C75.759 448 71.6896 446.312 68.69 443.31C65.6904 440.308 64.0063 436.237 64.0082 431.993C64.0101 427.749 65.6978 423.68 68.7 420.68C72 417.46 241.38 246.56 258.98 144C259.542 140.741 261.1 137.737 263.44 135.4L311.44 87.4C322.631 76.2128 336.887 68.5955 352.407 65.5114C367.927 62.4273 384.013 64.0149 398.631 70.0734C413.248 76.132 425.741 86.3893 434.529 99.5483C443.317 112.707 448.005 128.177 448 144ZM416 144C416.023 134.489 413.221 125.186 407.948 117.271C402.676 109.356 395.17 103.185 386.385 99.5424C377.599 95.8997 367.93 94.9489 358.603 96.8108C349.277 98.6727 340.713 103.263 334 110L289.54 154.58C280.72 196.88 251.74 246.96 218.56 293.44C265.04 260.26 315.12 231.28 357.42 222.46L402 178C406.467 173.541 410.005 168.24 412.408 162.403C414.811 156.567 416.032 150.312 416 144Z" fill="#00C896"/>
</svg>